<mxfile host="app.diagrams.net" modified="2021-09-17T08:41:48.542Z" agent="5.0 (Windows NT 10.0; Win64; x64) AppleWebKit/537.36 (KHTML, like Gecko) Chrome/93.0.4577.82 Safari/537.36" etag="60EEGErtUiZWZPRt2HsG" version="15.2.9" type="github">
  <diagram id="F58t5xwD7B449XQevm3X" name="Page-1">
    <mxGraphModel dx="868" dy="433" grid="1" gridSize="10" guides="1" tooltips="1" connect="1" arrows="1" fold="1" page="1" pageScale="1" pageWidth="850" pageHeight="1100" math="0" shadow="0">
      <root>
        <mxCell id="0" />
        <mxCell id="1" parent="0" />
        <mxCell id="mn5Y4yHje_cvyvkNkaBL-7" value="hunt" style="edgeStyle=orthogonalEdgeStyle;rounded=0;orthogonalLoop=1;jettySize=auto;html=1;exitX=1;exitY=0.5;exitDx=0;exitDy=0;endArrow=none;endFill=0;startArrow=ERmany;startFill=0;dashed=1;" parent="1" source="mn5Y4yHje_cvyvkNkaBL-1" edge="1">
          <mxGeometry x="-0.4" y="13" relative="1" as="geometry">
            <mxPoint x="380" y="143" as="targetPoint" />
            <mxPoint as="offset" />
          </mxGeometry>
        </mxCell>
        <mxCell id="mn5Y4yHje_cvyvkNkaBL-9" value="have driven" style="edgeStyle=orthogonalEdgeStyle;rounded=0;orthogonalLoop=1;jettySize=auto;html=1;exitX=0.5;exitY=1;exitDx=0;exitDy=0;dashed=1;endArrow=none;endFill=0;" parent="1" source="mn5Y4yHje_cvyvkNkaBL-1" edge="1">
          <mxGeometry x="-0.6092" y="-30" relative="1" as="geometry">
            <mxPoint x="220" y="260" as="targetPoint" />
            <mxPoint as="offset" />
          </mxGeometry>
        </mxCell>
        <mxCell id="mn5Y4yHje_cvyvkNkaBL-1" value="HUNTER" style="rounded=1;whiteSpace=wrap;html=1;" parent="1" vertex="1">
          <mxGeometry x="160" y="113" width="120" height="60" as="geometry" />
        </mxCell>
        <mxCell id="mn5Y4yHje_cvyvkNkaBL-5" value="carried by" style="edgeStyle=orthogonalEdgeStyle;rounded=0;orthogonalLoop=1;jettySize=auto;html=1;exitX=1;exitY=0.5;exitDx=0;exitDy=0;endArrow=none;endFill=0;dashed=1;" parent="1" edge="1">
          <mxGeometry x="-0.4059" y="-10" relative="1" as="geometry">
            <mxPoint x="541" y="260" as="targetPoint" />
            <mxPoint as="offset" />
            <mxPoint x="440" y="260" as="sourcePoint" />
          </mxGeometry>
        </mxCell>
        <mxCell id="mn5Y4yHje_cvyvkNkaBL-10" value="driven by" style="edgeStyle=orthogonalEdgeStyle;rounded=0;orthogonalLoop=1;jettySize=auto;html=1;exitX=0;exitY=0.5;exitDx=0;exitDy=0;endArrow=none;endFill=0;" parent="1" source="mn5Y4yHje_cvyvkNkaBL-2" edge="1">
          <mxGeometry x="-0.2121" y="10" relative="1" as="geometry">
            <mxPoint x="220" y="260" as="targetPoint" />
            <mxPoint as="offset" />
          </mxGeometry>
        </mxCell>
        <mxCell id="mn5Y4yHje_cvyvkNkaBL-2" value="VEHICLE" style="rounded=1;whiteSpace=wrap;html=1;" parent="1" vertex="1">
          <mxGeometry x="319" y="230" width="120" height="60" as="geometry" />
        </mxCell>
        <mxCell id="mn5Y4yHje_cvyvkNkaBL-4" value="drawn" style="edgeStyle=orthogonalEdgeStyle;rounded=0;orthogonalLoop=1;jettySize=auto;html=1;exitX=0.5;exitY=1;exitDx=0;exitDy=0;dashed=1;endArrow=none;endFill=0;startArrow=ERmany;startFill=0;" parent="1" source="mn5Y4yHje_cvyvkNkaBL-3" edge="1">
          <mxGeometry x="-0.6092" y="20" relative="1" as="geometry">
            <mxPoint x="540" y="260" as="targetPoint" />
            <mxPoint as="offset" />
          </mxGeometry>
        </mxCell>
        <mxCell id="mn5Y4yHje_cvyvkNkaBL-8" value="hunted by" style="edgeStyle=orthogonalEdgeStyle;rounded=0;orthogonalLoop=1;jettySize=auto;html=1;endArrow=none;endFill=0;startArrow=ERmany;startFill=0;dashed=1;" parent="1" source="mn5Y4yHje_cvyvkNkaBL-3" edge="1">
          <mxGeometry x="-0.4" y="17" relative="1" as="geometry">
            <mxPoint x="380" y="143" as="targetPoint" />
            <mxPoint as="offset" />
          </mxGeometry>
        </mxCell>
        <mxCell id="mn5Y4yHje_cvyvkNkaBL-3" value="ANIMAL" style="rounded=1;whiteSpace=wrap;html=1;" parent="1" vertex="1">
          <mxGeometry x="480" y="113" width="120" height="60" as="geometry" />
        </mxCell>
      </root>
    </mxGraphModel>
  </diagram>
</mxfile>
